<?xml version="1.0" encoding="utf-8"?>
<!-- Generator: Adobe Illustrator 21.1.0, SVG Export Plug-In . SVG Version: 6.00 Build 0)  -->
<svg version="1.1" id="Layer_1" xmlns="http://www.w3.org/2000/svg" xmlns:xlink="http://www.w3.org/1999/xlink" x="0px" y="0px"
	 viewBox="0 0 352 34" style="enable-background:new 0 0 352 34;" xml:space="preserve">
<style type="text/css">
	.st0{fill:#4D4D4F;}
</style>
<g>
	<g>
		<g>
			<g>
				<path class="st0" d="M14.4,25.3C9.3,25.3,7,21,7,16.8c0-4.2,2.3-8.5,7.4-8.5c4,0,6.3,2.2,6.8,6.4l0.1,0.5l-4.8,0.3l0-0.5
					c0-2.9-1.6-2.9-2.2-2.9c-1.6,0-2.4,1.6-2.4,4.8c0,3.1,0.7,4.4,2.5,4.4c1.7,0,2.1-1.8,2.3-2.5l0.1-0.4l4.4,0.3l-0.1,0.5
					C20.8,22.9,18.2,25.3,14.4,25.3z M14.5,9.3c-4.8,0-6.5,4.1-6.5,7.6c0,3.5,1.7,7.6,6.4,7.6c3.2,0,5.4-1.8,5.9-4.8l-2.6-0.2
					c-0.4,1.8-1.5,2.9-3.1,2.9c-3.4,0-3.4-3.9-3.4-5.3c0-3.8,1.1-5.7,3.3-5.7c1.8,0,2.9,1.2,3,3.3l2.9-0.2
					C19.7,11,17.8,9.3,14.5,9.3z"/>
			</g>
			<g>
				<path class="st0" d="M30.6,25.3c-2.4,0-4.1-0.9-5.4-2.6l0,0c-1.1-1.6-1.7-3.6-1.7-5.8c0-6.2,3.8-8.4,7.1-8.4
					c2.3,0,4,0.8,5.3,2.6c1.1,1.5,1.8,3.7,1.8,5.9c0,1.6-0.4,4-1.6,5.6C34.8,24.3,32.9,25.3,30.6,25.3z M25.9,22.1
					c1.1,1.5,2.6,2.3,4.7,2.3c2,0,3.7-0.8,4.8-2.4c1-1.5,1.4-3.7,1.4-5.1c0-1.9-0.6-4-1.6-5.3C34,10,32.6,9.3,30.6,9.3
					c-4.6,0-6.2,4.1-6.2,7.5C24.3,18.8,24.9,20.7,25.9,22.1z M30.6,22.3c-2.2,0-3.3-1.9-3.3-5.5c0-1,0.1-2.4,0.5-3.4
					c0.5-1.4,1.4-2.1,2.8-2.1c1.3,0,2.1,0.6,2.7,1.8c0.4,0.9,0.6,2.2,0.6,3.7c0,0.8-0.1,2.3-0.5,3.4C32.8,21.6,31.9,22.3,30.6,22.3z
					 M30.6,12.2c-1,0-1.5,0.4-1.9,1.5l0,0c-0.3,0.9-0.5,2.2-0.5,3.1c0,3.1,0.8,4.6,2.4,4.6c1,0,1.5-0.4,1.9-1.5
					c0.3-0.8,0.5-1.9,0.5-3.1c0-1.4-0.2-2.5-0.5-3.3C32,12.6,31.5,12.2,30.6,12.2z"/>
			</g>
			<g>
				<path class="st0" d="M47.2,25.3c-2.4,0-4.1-0.9-5.4-2.6l0,0C40.6,21.1,40,19,40,16.8c0-6.2,3.8-8.4,7.1-8.4c2.3,0,4,0.8,5.3,2.6
					c1.1,1.5,1.8,3.7,1.8,5.9c0,1.6-0.4,4-1.6,5.6C51.4,24.3,49.5,25.3,47.2,25.3z M42.5,22.1c1.1,1.5,2.6,2.3,4.7,2.3
					c2,0,3.7-0.8,4.8-2.4c1-1.5,1.4-3.7,1.4-5.1c0-1.9-0.6-4-1.6-5.3c-1.1-1.5-2.6-2.2-4.6-2.2c-4.6,0-6.2,4.1-6.2,7.5
					C40.9,18.8,41.5,20.7,42.5,22.1z M47.2,22.3c-2.2,0-3.3-1.9-3.3-5.5c0-1,0.1-2.4,0.5-3.4c0.5-1.4,1.4-2.1,2.8-2.1
					c1.3,0,2.1,0.6,2.7,1.8c0.4,0.9,0.6,2.2,0.6,3.7c0,0.8-0.1,2.3-0.5,3.4C49.4,21.6,48.5,22.3,47.2,22.3z M47.2,12.2
					c-1,0-1.5,0.4-1.9,1.5l0,0c-0.3,0.9-0.5,2.2-0.5,3.1c0,3.1,0.8,4.6,2.4,4.6c1,0,1.5-0.4,1.9-1.5c0.3-0.8,0.5-1.9,0.5-3.1
					c0-1.4-0.2-2.5-0.5-3.3C48.6,12.6,48.1,12.2,47.2,12.2z"/>
			</g>
			<g>
				<path class="st0" d="M68.4,25H57.6V8.6h4.5v12.5h6.3V25z M58.5,24.1h9V22h-6.3V9.5h-2.7V24.1z"/>
			</g>
		</g>
		<g>
			<g>
				<path class="st0" d="M88.3,19.1c-0.3,3.8-3.1,6.3-6.9,6.3c-5,0-7.5-3.6-7.5-8.3c0-4.8,2.3-8.7,7.5-8.7c4.2,0,6.6,2.5,6.9,6.6
					l-4.7,0.2c0-1.4-0.5-3.1-2.2-3.1c-2.2,0-2.3,3.4-2.3,5c0,1.7,0.1,4.5,2.4,4.5c1.6,0,2.2-1.4,2.2-2.7L88.3,19.1z"/>
			</g>
			<g>
				<path class="st0" d="M106.5,16.9c0,4.7-2.9,8.4-7.9,8.4c-5,0-7.9-3.8-7.9-8.4c0-4.9,2.9-8.5,7.9-8.5
					C103.6,8.3,106.5,12,106.5,16.9z M96.1,16.9c0,1.6,0.2,4.6,2.5,4.6s2.5-3.1,2.5-4.6c0-1.6-0.2-4.8-2.5-4.8
					C96.3,12.1,96.1,15.3,96.1,16.9z"/>
			</g>
			<g>
				<path class="st0" d="M127.6,25.1h-4.7V13.3h0l-3,11.8h-3.2l-3.1-11.8h0v11.8h-3.8V8.6h6.6l2.4,8.8h0l2.3-8.8h6.7V25.1z"/>
			</g>
			<g>
				<path class="st0" d="M145,25.1h-12.4V8.6H145v3.8h-7.4v2.4h6v3.7h-6v2.7h7.4V25.1z"/>
			</g>
			<g>
				<path class="st0" d="M150.2,8.6h6.1c2.4,0,4.3,0.3,6.1,2c1.7,1.6,2.5,3.9,2.5,6.3c0,2.2-0.8,4.4-2.3,6c-1.6,1.7-3.7,2.2-6,2.2
					h-6.4V8.6z M156,21.3c0.7,0,1.1,0,1.7-0.3c0.5-0.3,0.8-0.6,1.1-1.1c0.6-1,0.8-2.1,0.8-3.2c0-1.1-0.3-2.5-1-3.5
					c-0.8-1-1.6-0.9-2.7-0.9h-0.6v8.9H156z"/>
			</g>
			<g>
				<path class="st0" d="M177.1,18.1v7h-4.9v-7l-5.6-9.5h5.6L175,14l2.8-5.4h4.4L177.1,18.1z"/>
			</g>
		</g>
		<g>
			<g>
				<path class="st0" d="M201.1,25h-4.5v-6.4h-3.9V25h-4.5V8.6h4.5v6.1h3.9V8.6h4.5V25z M197.4,24.1h2.7V9.5h-2.7v6.1h-5.7V9.5H189
					v14.6h2.7v-6.4h5.7V24.1z"/>
			</g>
			<g>
				<path class="st0" d="M211.5,25.3c-2.4,0-4.1-0.9-5.4-2.6l0,0c-1.1-1.6-1.7-3.6-1.7-5.8c0-6.2,3.8-8.4,7.1-8.4
					c2.3,0,4,0.8,5.3,2.6c1.1,1.5,1.8,3.7,1.8,5.9c0,1.6-0.4,4-1.5,5.6C215.8,24.3,213.8,25.3,211.5,25.3z M206.9,22.1
					c1.1,1.5,2.6,2.3,4.7,2.3c2,0,3.7-0.8,4.8-2.4c1-1.5,1.4-3.6,1.4-5.1c0-1.9-0.6-4-1.6-5.3c-1.1-1.5-2.5-2.2-4.6-2.2
					c-4.6,0-6.2,4-6.2,7.5C205.3,18.8,205.9,20.7,206.9,22.1L206.9,22.1z M211.5,22.3c-2.2,0-3.3-1.8-3.3-5.5c0-1,0.1-2.4,0.5-3.4
					c0.5-1.4,1.4-2.1,2.8-2.1c1.3,0,2.1,0.6,2.7,1.8c0.4,0.9,0.6,2.2,0.6,3.7c0,0.8-0.1,2.3-0.5,3.4
					C213.8,21.6,212.9,22.3,211.5,22.3z M211.5,12.3c-1,0-1.5,0.4-1.9,1.5l0,0c-0.3,0.9-0.5,2.2-0.5,3.1c0,3.1,0.8,4.6,2.4,4.6
					c1,0,1.5-0.4,1.9-1.5c0.3-0.8,0.4-1.9,0.4-3.1c0-1.4-0.2-2.5-0.5-3.3C213,12.6,212.5,12.3,211.5,12.3z"/>
			</g>
			<g>
				<path class="st0" d="M229.1,25h-4.5V12.6h-3.9v-4H233v4h-3.9V25z M225.5,24.1h2.7V11.7h3.9V9.5h-10.5v2.2h3.9V24.1z"/>
			</g>
		</g>
		<g>
			<g>
				<path class="st0" d="M251.9,19.1c-0.3,3.8-3.1,6.2-6.9,6.2c-4.9,0-7.5-3.6-7.5-8.3c0-4.8,2.3-8.7,7.5-8.7c4.2,0,6.6,2.5,6.9,6.6
					l-4.7,0.2c0-1.4-0.5-3.1-2.2-3.1c-2.2,0-2.3,3.4-2.3,5c0,1.7,0.1,4.5,2.4,4.5c1.6,0,2.2-1.4,2.2-2.7L251.9,19.1z"/>
			</g>
			<g>
				<path class="st0" d="M269.1,19.2c0,1.9-0.2,3.5-1.8,4.7c-1.4,1.1-3.1,1.4-4.9,1.4c-1.5,0-3.5-0.3-4.8-1.2
					c-1.8-1.2-2.1-2.7-2.1-4.7V8.6h5.1v10.3c0,0.6,0,1.3,0.3,1.8c0.4,0.5,1.2,0.7,1.8,0.7c0.6,0,1.3-0.2,1.7-0.6
					c0.6-0.6,0.6-1.4,0.6-2.2V8.6h4V19.2z"/>
			</g>
			<g>
				<path class="st0" d="M279.2,25.1h-5.1V8.6h5.1V25.1z"/>
			</g>
			<g>
				<path class="st0" d="M287.9,19.5c0.4,1.5,1.5,2,3,2c0.6,0,1.9-0.1,1.9-1c0-1-1.3-1.2-2-1.3c-3.1-0.6-6.8-1.4-6.8-5.4
					c0-1.6,0.8-3.2,2.1-4.1c1.3-0.9,3.1-1.2,4.7-1.2c2.9,0,5.6,1.2,6.6,4l-4.2,1.3c-0.5-1.2-1.4-1.7-2.7-1.7c-0.7,0-1.6,0.2-1.6,1.1
					c0,0.9,1.2,1,1.8,1.2c1.6,0.3,3.2,0.6,4.7,1.3c1.6,0.9,2.4,2.4,2.4,4.2c0,4-3.9,5.5-7.4,5.5c-3.5,0-6.5-1.4-7.4-5L287.9,19.5z"
					/>
			</g>
			<g>
				<path class="st0" d="M307.5,25.1h-5.1V8.6h5.1V25.1z"/>
			</g>
			<g>
				<path class="st0" d="M322.6,25.1l-4.7-7.7l-1.5-3l0,0l0,0.2c0.2,1.1,0.3,1.6,0.3,2.8v7.7h-4.1V8.6h4.8l5.5,9.2l0,0l-0.4-4.6V8.6
					h4.1v16.5H322.6z"/>
			</g>
			<g>
				<path class="st0" d="M344.2,25.1h-12.4V8.6h12.4v3.8h-7.4v2.4h6v3.7h-6v2.7h7.4V25.1z"/>
			</g>
		</g>
	</g>
</g>
</svg>
