<?xml version="1.0" encoding="utf-8"?>
<!-- Generator: Adobe Illustrator 21.1.0, SVG Export Plug-In . SVG Version: 6.00 Build 0)  -->
<svg version="1.1" id="Layer_1" xmlns="http://www.w3.org/2000/svg" xmlns:xlink="http://www.w3.org/1999/xlink" x="0px" y="0px"
	 viewBox="0 0 29 30" style="enable-background:new 0 0 29 30;" xml:space="preserve">
<style type="text/css">
	.st0{fill:#4D4D4F;}
</style>
<path class="st0" d="M16.9,6c0.4,0,0.8,0,1.3,0c0.5,0,0.9,0.1,1.2,0.1s0.7,0.1,0.9,0.3c0.3,0.1,0.6,0.3,0.9,0.4s0.5,0.4,0.8,0.6
	s0.5,0.5,0.6,0.8s0.3,0.6,0.4,0.8c0.1,0.3,0.2,0.6,0.3,0.9s0.1,0.8,0.1,1.3c0,0.5,0,0.9,0.1,1.3s0,1.2,0,2.4s0,2,0,2.4s0,0.8,0,1.3
	c0,0.5-0.1,0.9-0.1,1.2s-0.1,0.7-0.3,0.9c-0.1,0.3-0.3,0.6-0.4,0.9s-0.4,0.5-0.6,0.8s-0.5,0.5-0.8,0.6s-0.6,0.3-0.8,0.4
	c-0.3,0.1-0.6,0.2-0.9,0.3s-0.8,0.1-1.3,0.1c-0.5,0-0.9,0-1.3,0.1s-1.2,0-2.4,0s-2,0-2.4,0s-0.8,0-1.3,0c-0.5,0-0.9-0.1-1.2-0.1
	s-0.7-0.1-0.9-0.3c-0.3-0.1-0.6-0.3-0.9-0.4S7.3,22.7,7,22.5S6.6,22,6.4,21.7S6.1,21.2,6,20.9c-0.1-0.3-0.2-0.6-0.3-0.9
	s-0.1-0.8-0.1-1.3c0-0.5,0-0.9-0.1-1.3s0-1.2,0-2.4s0-2,0-2.4s0-0.8,0-1.3c0-0.5,0.1-0.9,0.1-1.2S5.9,9.4,6,9.1
	c0.1-0.3,0.3-0.6,0.4-0.9S6.8,7.8,7,7.5s0.5-0.5,0.8-0.6s0.6-0.3,0.8-0.4c0.3-0.1,0.6-0.2,0.9-0.3s0.8-0.1,1.3-0.1
	c0.5,0,0.9,0,1.3-0.1s1.2,0,2.4,0S16.5,6,16.9,6z M12.1,7.6c-0.4,0-0.8,0-1.3,0c-0.4,0-0.8,0.1-1,0.1S9.3,7.9,9.2,8
	C9,8.1,8.8,8.2,8.6,8.3S8.3,8.5,8.1,8.7C8,8.8,7.9,9,7.8,9.1S7.6,9.5,7.5,9.7c-0.1,0.2-0.1,0.4-0.2,0.6s-0.1,0.6-0.1,1.1
	c0,0.5,0,0.9-0.1,1.3s0,1.1,0,2.4c0,1.2,0,2,0,2.4s0,0.8,0,1.3c0,0.4,0.1,0.8,0.1,1s0.1,0.5,0.2,0.6c0.1,0.2,0.2,0.4,0.3,0.5
	s0.2,0.3,0.4,0.5c0.1,0.1,0.3,0.3,0.5,0.4S9,21.9,9.2,22c0.2,0.1,0.4,0.1,0.6,0.2s0.6,0.1,1.1,0.1c0.5,0,0.9,0,1.3,0.1s1.1,0,2.4,0
	c1.2,0,2,0,2.4,0s0.8,0,1.3,0c0.4,0,0.8-0.1,1-0.1s0.5-0.1,0.6-0.2c0.2-0.1,0.4-0.2,0.5-0.3s0.3-0.2,0.5-0.4
	c0.1-0.1,0.3-0.3,0.4-0.5s0.2-0.4,0.3-0.6c0.1-0.2,0.1-0.4,0.2-0.6s0.1-0.6,0.1-1.1c0-0.5,0-0.9,0.1-1.3s0-1.1,0-2.4
	c0-1.2,0-2,0-2.4s0-0.8,0-1.3c0-0.4-0.1-0.8-0.1-1s-0.1-0.5-0.2-0.6c-0.1-0.2-0.2-0.4-0.3-0.5S21,8.8,20.8,8.6
	c-0.1-0.1-0.3-0.3-0.5-0.4S20,8.1,19.8,8c-0.2-0.1-0.4-0.1-0.6-0.2s-0.6-0.1-1.1-0.1c-0.5,0-0.9,0-1.3-0.1s-1.1,0-2.4,0
	C13.3,7.6,12.5,7.6,12.1,7.6z M16.3,10.7c0.6,0.2,1.1,0.6,1.5,1s0.8,0.9,1,1.5s0.4,1.2,0.4,1.8s-0.1,1.2-0.4,1.8s-0.6,1.1-1,1.5
	s-0.9,0.8-1.5,1s-1.2,0.4-1.8,0.4s-1.2-0.1-1.8-0.4s-1.1-0.6-1.5-1s-0.8-0.9-1-1.5S9.9,15.6,9.9,15s0.1-1.2,0.4-1.8s0.6-1.1,1-1.5
	s0.9-0.8,1.5-1s1.2-0.4,1.8-0.4S15.7,10.5,16.3,10.7z M16.6,17.1c0.6-0.6,0.9-1.3,0.9-2.1c0-0.8-0.3-1.5-0.9-2.1S15.3,12,14.5,12
	c-0.8,0-1.5,0.3-2.1,0.9s-0.9,1.3-0.9,2.1c0,0.8,0.3,1.5,0.9,2.1s1.3,0.9,2.1,0.9C15.3,18,16,17.7,16.6,17.1z M20.1,9.4
	c-0.2-0.2-0.5-0.3-0.7-0.3c-0.3,0-0.6,0.1-0.8,0.3s-0.3,0.5-0.3,0.7c0,0.3,0.1,0.6,0.3,0.8s0.5,0.3,0.8,0.3c0.3,0,0.6-0.1,0.8-0.3
	s0.3-0.5,0.3-0.8C20.4,9.9,20.3,9.6,20.1,9.4z"/>
</svg>
